<svg id="Layer_1" data-name="Layer 1" xmlns="http://www.w3.org/2000/svg" viewBox="0 0 1440 1024"><defs><style>.cls-1{fill:#64adff;}</style></defs><title>clouds</title><path class="cls-1" d="M141.56,220.69c12.37,19.26,36.24,23.25,55.06,9.87a9.64,9.64,0,0,1,7.22-1c13.25,3.63,26.09,3.28,38.32-3.29,2.93-1.57,4.55-1.22,7.11.77a56.76,56.76,0,0,0,36.19,12c17.94-.24,33-6.62,44.9-20.4a8.28,8.28,0,0,1,5.19-2.53c17.88-1.25,31.55-15.56,30.33-32-1.31-17.53-16.05-30-34-29-1.89.11-4.47-.14-5.67-1.31-7.53-7.36-16.71-11.4-26.54-14.53-1.9-.6-4.21-2.8-4.65-4.66a70.19,70.19,0,0,0-61.14-54.24c-30.72-3.29-60.11,12.2-72.83,38.79-1.89,3.95-3.61,4.93-8,4.25a25.84,25.84,0,0,0-28.82,17.86c-1.18,3.62-2.66,4.36-6.15,4.13-12.16-.77-23.72,1.55-34.23,7.95-25.2,15.35-25.12,45.29.28,60.35,16,9.46,32.95,10.39,50.4,4.85,3.09-1,4.79-1.31,7,2.13"/><path class="cls-1" d="M608.15,446.63c7,10.91,20.52,13.17,31.18,5.59a5.46,5.46,0,0,1,4.09-.58c7.5,2.05,14.78,1.86,21.7-1.87,1.66-.89,2.58-.69,4,.43a32.15,32.15,0,0,0,20.5,6.8c10.16-.13,18.72-3.75,25.43-11.55A4.69,4.69,0,0,1,718,444c10.12-.71,17.87-8.81,17.17-18.12-.74-9.93-9.09-17-19.26-16.4a4.69,4.69,0,0,1-3.21-.74c-4.27-4.17-9.46-6.46-15-8.23a4.46,4.46,0,0,1-2.63-2.64,39.75,39.75,0,0,0-34.63-30.72c-17.4-1.87-34,6.91-41.24,22-1.07,2.24-2,2.79-4.52,2.41a14.64,14.64,0,0,0-16.32,10.12c-.67,2-1.51,2.47-3.48,2.34a32.45,32.45,0,0,0-19.38,4.5c-14.27,8.69-14.23,25.65.16,34.18,9,5.36,18.66,5.88,28.54,2.74,1.75-.56,2.71-.74,4,1.21"/><path class="cls-1" d="M1114.15,702.63c7,10.91,20.52,13.17,31.18,5.59a5.46,5.46,0,0,1,4.09-.58c7.5,2.05,14.78,1.86,21.7-1.87,1.66-.89,2.58-.69,4,.43a32.15,32.15,0,0,0,20.5,6.8c10.16-.13,18.72-3.75,25.43-11.55A4.69,4.69,0,0,1,1224,700c10.12-.71,17.87-8.81,17.17-18.12-.74-9.93-9.09-17-19.26-16.4a4.69,4.69,0,0,1-3.21-.74c-4.27-4.17-9.46-6.46-15-8.23a4.46,4.46,0,0,1-2.63-2.64,39.75,39.75,0,0,0-34.63-30.72c-17.4-1.87-34,6.91-41.24,22-1.07,2.24-2,2.79-4.52,2.41a14.64,14.64,0,0,0-16.32,10.12c-.67,2-1.51,2.47-3.48,2.34a32.45,32.45,0,0,0-19.38,4.5c-14.27,8.69-14.23,25.65.16,34.18,9,5.36,18.66,5.88,28.54,2.74,1.75-.56,2.71-.74,4,1.21"/><path class="cls-1" d="M1179.15,114.63c7,10.91,20.52,13.17,31.18,5.59a5.46,5.46,0,0,1,4.09-.58c7.5,2.05,14.78,1.86,21.7-1.87,1.66-.89,2.58-.69,4,.43a32.15,32.15,0,0,0,20.5,6.8c10.16-.13,18.72-3.75,25.43-11.55A4.69,4.69,0,0,1,1289,112c10.12-.71,17.87-8.81,17.17-18.12-.74-9.93-9.09-17-19.26-16.4a4.69,4.69,0,0,1-3.21-.74c-4.27-4.17-9.46-6.46-15-8.23a4.46,4.46,0,0,1-2.63-2.64,39.75,39.75,0,0,0-34.63-30.72c-17.4-1.87-34,6.91-41.24,22-1.07,2.24-2,2.79-4.52,2.41a14.64,14.64,0,0,0-16.32,10.12c-.67,2-1.51,2.47-3.48,2.34a32.45,32.45,0,0,0-19.38,4.5c-14.27,8.69-14.23,25.65.16,34.18,9,5.36,18.66,5.88,28.54,2.74,1.75-.56,2.71-.74,4,1.21"/><path class="cls-1" d="M253.86,921c12.13,18.89,35.54,22.81,54,9.68a9.45,9.45,0,0,1,7.08-1c13,3.56,25.59,3.21,37.59-3.23,2.88-1.54,4.47-1.19,7,.75A55.67,55.67,0,0,0,395,939c17.6-.23,32.41-6.49,44-20a8.12,8.12,0,0,1,5.09-2.48c17.53-1.22,30.94-15.26,29.74-31.38-1.28-17.2-15.75-29.44-33.35-28.39-1.86.11-4.39-.14-5.56-1.29-7.39-7.21-16.39-11.18-26-14.25a7.73,7.73,0,0,1-4.56-4.57,68.84,68.84,0,0,0-60-53.19c-30.13-3.23-59,12-71.42,38-1.85,3.87-3.54,4.83-7.82,4.17a25.35,25.35,0,0,0-28.27,17.52c-1.15,3.55-2.61,4.27-6,4.05-11.92-.76-23.26,1.52-33.57,7.79-24.72,15.05-24.64,44.42.27,59.19,15.64,9.27,32.31,10.19,49.43,4.75,3-1,4.7-1.29,6.86,2.09"/><path class="cls-1" d="M791.1,784.53c9.1,14.17,26.65,17.1,40.5,7.26a7.09,7.09,0,0,1,5.31-.76c9.74,2.67,19.19,2.41,28.19-2.42,2.16-1.16,3.35-.89,5.23.56A41.75,41.75,0,0,0,896.95,798c13.2-.17,24.31-4.87,33-15a6.09,6.09,0,0,1,3.82-1.86c13.15-.92,23.21-11.44,22.31-23.54-1-12.9-11.81-22.08-25-21.3-1.39.08-3.29-.11-4.17-1-5.54-5.41-12.29-8.39-19.52-10.69a5.79,5.79,0,0,1-3.42-3.43,51.63,51.63,0,0,0-45-39.89c-22.59-2.42-44.21,9-53.57,28.53-1.39,2.91-2.65,3.62-5.87,3.13a19,19,0,0,0-21.2,13.14c-.87,2.66-2,3.2-4.52,3A42.15,42.15,0,0,0,748.67,735c-18.54,11.29-18.48,33.31.21,44.39,11.73,7,24.24,7.64,37.07,3.56,2.28-.72,3.52-1,5.15,1.57"/><path class="cls-1" d="M161.1,609.53c9.1,14.17,26.65,17.1,40.5,7.26a7.09,7.09,0,0,1,5.31-.76c9.74,2.67,19.19,2.41,28.19-2.42,2.16-1.16,3.35-.89,5.23.56A41.75,41.75,0,0,0,266.95,623c13.2-.17,24.31-4.87,33-15a6.09,6.09,0,0,1,3.82-1.86c13.15-.92,23.21-11.44,22.31-23.54-1-12.9-11.81-22.08-25-21.3-1.39.08-3.29-.11-4.17-1-5.54-5.41-12.29-8.39-19.52-10.69a5.79,5.79,0,0,1-3.42-3.43,51.63,51.63,0,0,0-45-39.89c-22.59-2.42-44.21,9-53.57,28.53-1.39,2.91-2.65,3.62-5.87,3.13a19,19,0,0,0-21.2,13.14c-.87,2.66-2,3.2-4.52,3A42.15,42.15,0,0,0,118.67,560c-18.54,11.29-18.48,33.31.21,44.39,11.73,7,24.24,7.64,37.07,3.56,2.28-.72,3.52-1,5.15,1.57"/><path class="cls-1" d="M793.6,180.73c11.93,18.57,34.95,22.42,53.1,9.52a9.29,9.29,0,0,1,7-1c12.77,3.5,25.16,3.16,37-3.18,2.83-1.52,4.39-1.17,6.86.74a54.74,54.74,0,0,0,34.9,11.57c17.3-.23,31.87-6.39,43.3-19.67a8,8,0,0,1,5-2.44c17.24-1.2,30.43-15,29.25-30.86-1.26-16.91-15.48-28.95-32.79-27.92-1.83.11-4.31-.14-5.47-1.27-7.27-7.09-16.11-11-25.59-14a7.6,7.6,0,0,1-4.48-4.49,67.69,67.69,0,0,0-59-52.3c-29.62-3.18-58,11.77-70.23,37.4-1.82,3.81-3.48,4.75-7.69,4.1a24.92,24.92,0,0,0-27.79,17.23c-1.14,3.49-2.57,4.2-5.93,4-11.72-.75-22.87,1.49-33,7.66-24.3,14.8-24.23,43.68.27,58.2,15.38,9.12,31.77,10,48.6,4.67,3-.95,4.62-1.27,6.75,2.05"/><path class="cls-1" d="M1299.38,978.24c12.67,19.73,37.12,23.82,56.4,10.11a9.87,9.87,0,0,1,7.39-1.06c13.57,3.72,26.72,3.36,39.26-3.37,3-1.61,4.67-1.25,7.28.78A58.14,58.14,0,0,0,1446.78,997c18.38-.24,33.85-6.78,46-20.89a8.48,8.48,0,0,1,5.32-2.59c18.31-1.28,32.32-15.94,31.06-32.78-1.34-18-16.44-30.74-34.83-29.65-1.94.12-4.58-.15-5.81-1.35-7.72-7.54-17.12-11.68-27.19-14.88-1.94-.62-4.31-2.87-4.76-4.77a71.9,71.9,0,0,0-62.63-55.55c-31.46-3.37-61.57,12.5-74.6,39.73-1.94,4-3.7,5-8.17,4.36a26.47,26.47,0,0,0-29.52,18.3c-1.21,3.71-2.73,4.46-6.3,4.23-12.45-.79-24.29,1.58-35.06,8.14-25.82,15.72-25.73,46.39.29,61.82,16.34,9.69,33.75,10.64,51.63,5,3.17-1,4.91-1.34,7.17,2.18"/><path class="cls-1" d="M1227.34,380.92c8.16,12.71,23.9,15.34,36.32,6.51a6.36,6.36,0,0,1,4.76-.68c8.74,2.39,17.21,2.16,25.28-2.17,1.93-1,3-.8,4.69.5a37.45,37.45,0,0,0,23.87,7.92c11.84-.16,21.8-4.37,29.62-13.45a5.46,5.46,0,0,1,3.43-1.67c11.79-.82,20.81-10.26,20-21.11-.86-11.57-10.59-19.8-22.43-19.1-1.25.07-3-.09-3.74-.87-5-4.85-11-7.52-17.51-9.58a5.2,5.2,0,0,1-3.07-3.07,46.3,46.3,0,0,0-40.33-35.78c-20.26-2.17-39.65,8-48,25.59-1.25,2.61-2.38,3.25-5.26,2.81a17,17,0,0,0-19,11.78c-.78,2.39-1.76,2.87-4.06,2.73a37.8,37.8,0,0,0-22.58,5.24c-16.63,10.12-16.57,29.88.18,39.81,10.52,6.24,21.74,6.85,33.25,3.2,2-.65,3.16-.87,4.62,1.41"/></svg>